<svg xmlns="http://www.w3.org/2000/svg" viewBox="0 0 900 665" role="img" aria-label="SMT · una comparación, no una orden"><title>SMT · una comparación, no una orden</title><defs><marker id="arrow" markerWidth="9" markerHeight="9" refX="8" refY="4" orient="auto"><path d="M0 0 L8 4 L0 8" fill="#9b4e32"/></marker></defs><rect width="900" height="665" fill="#fff"/><g font-family="Segoe UI,Arial,sans-serif"><text x="35" y="47" font-size="28" fill="#173d48">SMT · una comparación, no una orden</text><text x="45" y="97" font-size="23" fill="#173d48">A · primer máximo y máximo superior</text><path d="M60 237 L170 140 L270 216 L390 165 L485 205 L615 112 L725 220 L845 255" fill="none" stroke="#173d48" stroke-width="4"/><path d="M60 140 H850" fill="none" stroke="#c49a52" stroke-width="2" stroke-dasharray="8 6"/><text x="45" y="322" font-size="23" fill="#173d48">B · primer máximo y máximo inferior</text><path d="M60 452 L170 350 L270 426 L390 404 L485 440 L615 383 L725 460 L845 485" fill="none" stroke="#9b4e32" stroke-width="4"/><path d="M60 350 H850" fill="none" stroke="#c49a52" stroke-width="2" stroke-dasharray="8 6"/><path d="M170 115 V495 M615 95 V495" stroke="#b9c8ca" stroke-width="1" stroke-dasharray="5 5"/><text x="45" y="550" font-size="23" fill="#173d48">Comparar momentos homólogos y datos sincronizados.</text><text x="45" y="588" font-size="20" fill="#173d48">Series ficticias · escalas independientes · falta la entrada propia.</text><text x="35" y="641" font-size="18" fill="#9b4e32">Esquema propio · no es una captura de mercado</text></g></svg>