<svg xmlns="http://www.w3.org/2000/svg" viewBox="0 0 860 610"><rect width="860" height="610" fill="#fff"/><g font-family="Segoe UI, sans-serif" fill="#173d48" font-size="22"><text x="30" y="40" font-size="27" font-weight="bold">Power of Three · dos recorridos posibles</text><text x="30" y="105" font-weight="bold">Hipótesis alcista</text><line x1="30" x2="820" y1="185" y2="185" stroke="#aabbb9" stroke-dasharray="7 6"/><text x="30" y="168" font-size="18">Apertura</text><polyline points="160,185 205,175 245,190 285,182 370,260 470,180 570,150 630,170 795,105" fill="none" stroke="#1b6a63" stroke-width="5"/><text x="155" y="304" font-size="18">Acumulación</text><text x="320" y="304" font-size="18">Tramo contrario</text><text x="570" y="304" font-size="18">Expansión / distribución</text><text x="30" y="365" font-weight="bold">Hipótesis bajista</text><line x1="30" x2="820" y1="445" y2="445" stroke="#aabbb9" stroke-dasharray="7 6"/><text x="30" y="428" font-size="18">Apertura</text><polyline points="160,445 205,435 245,450 285,442 370,375 470,440 570,485 630,465 795,530" fill="none" stroke="#a24f32" stroke-width="5"/><text x="155" y="564" font-size="18">Acumulación</text><text x="320" y="564" font-size="18">Tramo contrario</text><text x="570" y="564" font-size="18">Expansión / distribución</text></g></svg>